<svg width="25" height="25" viewBox="0 0 25 25" fill="none" xmlns="http://www.w3.org/2000/svg">
<path d="M12.5 25C19.4036 25 25 19.4036 25 12.5C25 5.59644 19.4036 0 12.5 0C5.59644 0 0 5.59644 0 12.5C0 19.4036 5.59644 25 12.5 25Z" fill="white"/>
<path d="M16.3842 7.76831C15.8898 7.76831 15.5367 8.12142 15.5367 8.61577C15.5367 9.11012 15.8898 9.46323 16.3842 9.46323C16.8785 9.46323 17.2316 9.11012 17.2316 8.61577C17.2316 8.12142 16.8785 7.76831 16.3842 7.76831Z" fill="#1C2645"/>
<path d="M12.5706 8.89819C10.5932 8.89819 8.96893 10.5225 8.96893 12.4999C8.96893 14.4773 10.5932 16.1016 12.5706 16.1016C14.548 16.1016 16.1723 14.4773 16.1723 12.4999C16.1723 10.4519 14.548 8.89819 12.5706 8.89819ZM12.5706 14.7598C11.2994 14.7598 10.2401 13.7005 10.2401 12.4293C10.2401 11.1581 11.2994 10.0988 12.5706 10.0988C13.8418 10.0988 14.9011 11.1581 14.9011 12.4293C14.8305 13.7711 13.8418 14.7598 12.5706 14.7598Z" fill="#1C2645"/>
<path d="M15.3955 19.7739H9.5339C7.13277 19.7739 5.15536 17.7965 5.15536 15.3954V9.5338C5.15536 7.13267 7.13277 5.15527 9.5339 5.15527H15.3955C17.7966 5.15527 19.774 7.13267 19.774 9.5338V15.3954C19.8446 17.7965 17.8672 19.7739 15.3955 19.7739ZM9.5339 6.49708C7.83898 6.49708 6.49717 7.83889 6.49717 9.5338V15.3954C6.49717 17.0903 7.83898 18.4321 9.5339 18.4321H15.3955C17.0904 18.4321 18.4322 17.0903 18.4322 15.3954V9.5338C18.4322 7.83889 17.0904 6.49708 15.3955 6.49708H9.5339Z" fill="#1C2645"/>
</svg>
