<svg width="48" height="38" viewBox="0 0 48 38" fill="none" xmlns="http://www.w3.org/2000/svg">
<path d="M28.2947 0.580444C20.5124 0.580444 10.5594 7.32122 3.57119 12.9814C1.71825 14.4736 0.659424 16.6863 0.659424 19.0018C0.659424 21.3173 1.71825 23.53 3.57119 25.0222C10.5594 30.6824 20.5124 37.4232 28.2947 37.4232C38.7241 37.4232 47.2477 29.1387 47.2477 19.0018C47.2477 8.86491 38.7241 0.580444 28.2947 0.580444ZM27.2359 34.9533C18.183 34.9533 10.8241 27.8008 10.8241 19.0018C10.8241 10.2028 18.183 3.05035 27.2359 3.05035C36.2888 3.05035 43.6477 10.2028 43.6477 19.0018C43.6477 27.8008 36.2888 34.9533 27.2359 34.9533Z" fill="#EAF4FF"/>
<path d="M33.1124 14.9882C33.0065 15.0397 32.9006 15.0397 32.7947 15.0397C32.3183 15.0397 31.9477 14.7824 31.8418 14.3707C31.2065 12.4154 29.3536 11.129 27.2359 11.129C25.1712 11.129 23.3183 12.4154 22.63 14.3707C22.4712 14.8853 21.8888 15.1426 21.3065 14.9882C20.7771 14.8338 20.5124 14.2678 20.6712 13.7533C21.6241 11.0261 24.2183 9.17365 27.183 9.17365C30.1477 9.17365 32.7947 11.0261 33.6947 13.7533C33.9065 14.2678 33.6418 14.8338 33.1124 14.9882Z" fill="#EAF4FF"/>
<path d="M36.2359 20.2882L32.53 27.7494C32.1594 28.4183 31.5771 28.83 30.8888 28.83H23.4771C22.7888 28.83 22.2065 28.4183 21.8359 27.7494L18.6594 21.3688L18.13 20.2882C17.9712 19.928 17.8653 19.5164 17.8653 19.1562C17.8653 17.9212 18.6594 16.8406 19.7712 16.8406H34.5418C36.0771 16.8406 37.03 18.796 36.2359 20.2882Z" fill="#EAF4FF"/>
</svg>
