<svg width="25" height="25" viewBox="0 0 25 25" fill="none" xmlns="http://www.w3.org/2000/svg">
<path d="M12.5 25C19.4036 25 25 19.4036 25 12.5C25 5.59644 19.4036 0 12.5 0C5.59644 0 0 5.59644 0 12.5C0 19.4036 5.59644 25 12.5 25Z" fill="white"/>
<path d="M19.4209 8.19215C18.9972 8.40401 18.5028 8.47464 18.0085 8.61588C18.2203 8.54526 18.5734 8.19215 18.7147 7.98029C18.9265 7.6978 19.0678 7.48594 19.1384 7.13283V7.06221H19.0678C18.5734 7.34469 18.0085 7.55656 17.4435 7.6978C17.3729 7.6978 17.3729 7.6978 17.3023 7.6978C17.2316 7.62718 17.2316 7.62718 17.161 7.55656C16.9491 7.34469 16.6667 7.20345 16.3842 7.06221C16.0311 6.92096 15.6073 6.85034 15.1836 6.85034C14.7599 6.85034 14.4068 6.99158 14.0537 7.20345C13.7006 7.41531 13.3475 7.62718 13.1356 7.98029C12.8531 8.33339 12.7119 8.6865 12.5706 9.11023C12.5 9.53396 12.5 9.88707 12.5706 10.3108C12.5706 10.3814 12.5706 10.3814 12.5 10.3814C10.2401 10.0283 8.40395 9.25147 6.9209 7.55656C6.85028 7.48594 6.85028 7.48594 6.77966 7.55656C6.00282 8.47464 6.35593 10.0283 7.20338 10.8051C7.34463 10.8758 7.41525 11.017 7.55649 11.0876C7.48587 11.0876 6.99152 11.017 6.49717 10.8051C6.35593 10.8051 6.35593 10.8051 6.35593 10.8758C6.35593 11.017 6.35593 11.0876 6.35593 11.2289C6.49717 12.2176 7.20338 13.1357 8.12146 13.4888C8.26271 13.5594 8.33333 13.5594 8.47457 13.63C8.26271 13.7006 8.05084 13.7006 7.41525 13.63C7.34463 13.63 7.27401 13.63 7.34463 13.7006C7.83898 14.9718 8.82768 15.3249 9.60451 15.5368C9.67514 15.5368 9.81638 15.5368 9.887 15.6074C9.60451 15.9605 8.75706 16.243 8.33333 16.3842C7.62711 16.6667 6.77966 16.7373 6.00282 16.6667C5.86158 16.6667 5.86158 16.6667 5.79095 16.6667C5.79095 16.6667 5.79095 16.7373 5.86158 16.7373C6.00282 16.9492 6.21468 17.0198 6.35593 17.1611C6.85028 17.4436 7.34463 17.6554 7.9096 17.7967C10.6638 18.5735 13.8418 18.0085 15.8898 15.9605C17.5141 14.3362 18.0791 12.0763 18.0791 9.81644C18.0791 9.74582 18.1497 9.6752 18.2203 9.60458C18.6441 9.25147 18.9972 8.89836 19.2797 8.47464C19.4209 8.33339 19.4209 8.26277 19.4209 8.19215Z" fill="#1C2645"/>
</svg>
