<svg width="25" height="25" viewBox="0 0 25 25" fill="none" xmlns="http://www.w3.org/2000/svg">
<path d="M12.5 25C19.4036 25 25 19.4036 25 12.5C25 5.59644 19.4036 0 12.5 0C5.59644 0 0 5.59644 0 12.5C0 19.4036 5.59644 25 12.5 25Z" fill="white"/>
<path d="M19.209 10.7344C19.209 9.11012 17.8672 7.76831 16.2429 7.76831H8.5452C6.92091 7.76831 5.5791 9.11012 5.5791 10.7344V14.3361C5.5791 15.9604 6.92091 17.3022 8.5452 17.3022H16.2429C17.8672 17.3022 19.209 15.9604 19.209 14.3361V10.7344ZM14.6893 12.7824L11.2288 14.4773C11.0876 14.548 10.6638 14.4774 10.6638 14.2655V10.805C10.6638 10.6638 11.1582 10.5225 11.2288 10.6638L14.548 12.4293C14.6893 12.4999 14.8305 12.7118 14.6893 12.7824Z" fill="#1C2645"/>
</svg>
